{"metadata":{"kernelspec":{"display_name":"Python 3","language":"python","name":"python3"},"language_info":{"name":"python","version":"3.10.12","mimetype":"text/x-python","codemirror_mode":{"name":"ipython","version":3},"pygments_lexer":"ipython3","nbconvert_exporter":"python","file_extension":".py"},"kaggle":{"accelerator":"gpu","dataSources":[{"sourceId":170620,"sourceType":"datasetVersion","datasetId":75548},{"sourceId":7332117,"sourceType":"datasetVersion","datasetId":4256343},{"sourceId":7351006,"sourceType":"datasetVersion","datasetId":4268970}],"dockerImageVersionId":30587,"isInternetEnabled":true,"language":"python","sourceType":"notebook","isGpuEnabled":true}},"nbformat_minor":4,"nbformat":4,"cells":[{"cell_type":"code","source":"!git clone https://github.com/Min-KiD/DLProject-AnomalyDetected\n%cd DLProject-AnomalyDetected/infer","metadata":{"execution":{"iopub.status.busy":"2024-01-07T12:41:08.126308Z","iopub.execute_input":"2024-01-07T12:41:08.127018Z","iopub.status.idle":"2024-01-07T12:41:10.495590Z","shell.execute_reply.started":"2024-01-07T12:41:08.126983Z","shell.execute_reply":"2024-01-07T12:41:10.494560Z"},"trusted":true},"execution_count":1,"outputs":[{"name":"stdout","text":"Cloning into 'DLProject-AnomalyDetected'...\nremote: Enumerating objects: 99, done.\u001b[K\nremote: Counting objects: 100% (99/99), done.\u001b[K\nremote: Compressing objects: 100% (91/91), done.\u001b[K\nremote: Total 99 (delta 35), reused 0 (delta 0), pack-reused 0\u001b[K\nReceiving objects: 100% (99/99), 1.91 MiB | 6.41 MiB/s, done.\nResolving deltas: 100% (35/35), done.\n/kaggle/working/DLProject-AnomalyDetected/infer\n","output_type":"stream"}]},{"cell_type":"code","source":"import requests\nimport os\n\nurl = 'https://drive.google.com/uc?id=1-2EQRKO0jUnGPhU_3GuqtyAyu4FS93BR&export=download&confirm=t&uuid=12eaf101-0796-4f5b-813b-cbe20b5dbde0'\nsave_dir = '/kaggle/working/'\nresponse = requests.get(url)\n\nwith open(os.path.join(save_dir, 'model.pth'), 'wb') as f:\n    f.write(response.content)\n    \nurl = 'https://drive.google.com/uc?id=1L6Z5df37lb7LDiag17MB3XCrQfwBcGeU&export=download&confirm=t&uuid=12eaf101-0796-4f5b-813b-cbe20b5dbde0'\nresponse = requests.get(url)\n\nwith open(os.path.join(save_dir, 'RGB_Kinetics_16f.pth'), 'wb') as f:\n    f.write(response.content)","metadata":{"execution":{"iopub.status.busy":"2024-01-07T12:41:10.497496Z","iopub.execute_input":"2024-01-07T12:41:10.497768Z","iopub.status.idle":"2024-01-07T12:41:17.382216Z","shell.execute_reply.started":"2024-01-07T12:41:10.497742Z","shell.execute_reply":"2024-01-07T12:41:17.381429Z"},"trusted":true},"execution_count":2,"outputs":[]},{"cell_type":"markdown","source":"## Change file_path to path of video you want to predict with demo\n\ndemo will return .mp4 file and png.file","metadata":{}},{"cell_type":"code","source":"!python /kaggle/working/DLProject-AnomalyDetected/infer/infer.py '/kaggle/input/crimeucfdataset/Anomaly_Dataset/Anomaly_Videos/Anomaly-Videos-Part-1/Arrest/Arrest002_x264.mp4'","metadata":{"execution":{"iopub.status.busy":"2024-01-07T12:41:17.383472Z","iopub.execute_input":"2024-01-07T12:41:17.383821Z","iopub.status.idle":"2024-01-07T12:43:04.376232Z","shell.execute_reply.started":"2024-01-07T12:41:17.383789Z","shell.execute_reply":"2024-01-07T12:43:04.375132Z"},"trusted":true},"execution_count":3,"outputs":[{"name":"stdout","text":"ffmpeg version 4.4.2-0ubuntu0.22.04.1 Copyright (c) 2000-2021 the FFmpeg developers\n  built with gcc 11 (Ubuntu 11.2.0-19ubuntu1)\n  configuration: --prefix=/usr --extra-version=0ubuntu0.22.04.1 --toolchain=hardened --libdir=/usr/lib/x86_64-linux-gnu --incdir=/usr/include/x86_64-linux-gnu --arch=amd64 --enable-gpl --disable-stripping --enable-gnutls --enable-ladspa --enable-libaom --enable-libass --enable-libbluray --enable-libbs2b --enable-libcaca --enable-libcdio --enable-libcodec2 --enable-libdav1d --enable-libflite --enable-libfontconfig --enable-libfreetype --enable-libfribidi --enable-libgme --enable-libgsm --enable-libjack --enable-libmp3lame --enable-libmysofa --enable-libopenjpeg --enable-libopenmpt --enable-libopus --enable-libpulse --enable-librabbitmq --enable-librubberband --enable-libshine --enable-libsnappy --enable-libsoxr --enable-libspeex --enable-libsrt --enable-libssh --enable-libtheora --enable-libtwolame --enable-libvidstab --enable-libvorbis --enable-libvpx --enable-libwebp --enable-libx265 --enable-libxml2 --enable-libxvid --enable-libzimg --enable-libzmq --enable-libzvbi --enable-lv2 --enable-omx --enable-openal --enable-opencl --enable-opengl --enable-sdl2 --enable-pocketsphinx --enable-librsvg --enable-libmfx --enable-libdc1394 --enable-libdrm --enable-libiec61883 --enable-chromaprint --enable-frei0r --enable-libx264 --enable-shared\n  libavutil      56. 70.100 / 56. 70.100\n  libavcodec     58.134.100 / 58.134.100\n  libavformat    58. 76.100 / 58. 76.100\n  libavdevice    58. 13.100 / 58. 13.100\n  libavfilter     7.110.100 /  7.110.100\n  libswscale      5.  9.100 /  5.  9.100\n  libswresample   3.  9.100 /  3.  9.100\n  libpostproc    55.  9.100 / 55.  9.100\n\u001b[0;35m[mov,mp4,m4a,3gp,3g2,mj2 @ 0x5c972c056540] \u001b[0m\u001b[0;33mstream 0, timescale not set\n\u001b[0mInput #0, mov,mp4,m4a,3gp,3g2,mj2, from '/kaggle/input/crimeucfdataset/Anomaly_Dataset/Anomaly_Videos/Anomaly-Videos-Part-1/Arrest/Arrest002_x264.mp4':\n  Metadata:\n    major_brand     : isom\n    minor_version   : 512\n    compatible_brands: isomiso2avc1mp41\n    track           : 0\n    artist          : \n    album           : \n    date            : 0\n    genre           : \n    lyrics          : \n    title           : \n    encoder         : Lavf56.36.100\n  Duration: 00:00:59.75, start: 0.000000, bitrate: 1451 kb/s\n  Stream #0:0(und): Video: h264 (Constrained Baseline) (avc1 / 0x31637661), yuv420p, 320x240 [SAR 1:1 DAR 4:3], 1442 kb/s, 30 fps, 30 tbr, 15360 tbn, 60 tbc (default)\n    Metadata:\n      handler_name    : VideoHandler\n      vendor_id       : [0][0][0][0]\n  Stream #0:1(eng): Audio: aac (LC) (mp4a / 0x6134706D), 44100 Hz, stereo, fltp, 3 kb/s (default)\n    Metadata:\n      handler_name    : SoundHandler\n      vendor_id       : [0][0][0][0]\n  Stream #0:2: Video: png, rgb24(pc), 58x38 [SAR 304:261 DAR 16:9], 90k tbr, 90k tbn, 90k tbc (attached pic)\nStream mapping:\n  Stream #0:0 -> #0:0 (h264 (native) -> mjpeg (native))\nPress [q] to stop, [?] for help\n\u001b[1;34m[swscaler @ 0x5c972c1984c0] \u001b[0m\u001b[0;33mdeprecated pixel format used, make sure you did set range correctly\n\u001b[0mOutput #0, image2, to '/kaggle/working/Arrest002_x264/%05d.jpg':\n  Metadata:\n    major_brand     : isom\n    minor_version   : 512\n    compatible_brands: isomiso2avc1mp41\n    track           : 0\n    artist          : \n    album           : \n    date            : 0\n    genre           : \n    lyrics          : \n    title           : \n    encoder         : Lavf58.76.100\n  Stream #0:0(und): Video: mjpeg, yuvj420p(pc, progressive), 320x240 [SAR 1:1 DAR 4:3], q=2-31, 200 kb/s, 25 fps, 25 tbn (default)\n    Metadata:\n      handler_name    : VideoHandler\n      vendor_id       : [0][0][0][0]\n      encoder         : Lavc58.134.100 mjpeg\n    Side data:\n      cpb: bitrate max/min/avg: 0/0/200000 buffer size: 0 vbv_delay: N/A\nframe= 1493 fps=1379 q=2.0 Lsize=N/A time=00:00:59.72 bitrate=N/A dup=0 drop=297 speed=55.1x    \nvideo:9328kB audio:0kB subtitle:0kB other streams:0kB global headers:0kB muxing overhead: unknown\n/kaggle/working/DLProject-AnomalyDetected/infer/transform.py:33: UserWarning: TypedStorage is deprecated. It will be removed in the future and UntypedStorage will be the only storage class. This should only matter to you if you are using storages directly.  To access UntypedStorage directly, use tensor.untyped_storage() instead of tensor.storage()\n  img = torch.ByteTensor(torch.ByteStorage.from_buffer(pic.tobytes()))\nffmpeg version 4.4.2-0ubuntu0.22.04.1 Copyright (c) 2000-2021 the FFmpeg developers\n  built with gcc 11 (Ubuntu 11.2.0-19ubuntu1)\n  configuration: --prefix=/usr --extra-version=0ubuntu0.22.04.1 --toolchain=hardened --libdir=/usr/lib/x86_64-linux-gnu --incdir=/usr/include/x86_64-linux-gnu --arch=amd64 --enable-gpl --disable-stripping --enable-gnutls --enable-ladspa --enable-libaom --enable-libass --enable-libbluray --enable-libbs2b --enable-libcaca --enable-libcdio --enable-libcodec2 --enable-libdav1d --enable-libflite --enable-libfontconfig --enable-libfreetype --enable-libfribidi --enable-libgme --enable-libgsm --enable-libjack --enable-libmp3lame --enable-libmysofa --enable-libopenjpeg --enable-libopenmpt --enable-libopus --enable-libpulse --enable-librabbitmq --enable-librubberband --enable-libshine --enable-libsnappy --enable-libsoxr --enable-libspeex --enable-libsrt --enable-libssh --enable-libtheora --enable-libtwolame --enable-libvidstab --enable-libvorbis --enable-libvpx --enable-libwebp --enable-libx265 --enable-libxml2 --enable-libxvid --enable-libzimg --enable-libzmq --enable-libzvbi --enable-lv2 --enable-omx --enable-openal --enable-opencl --enable-opengl --enable-sdl2 --enable-pocketsphinx --enable-librsvg --enable-libmfx --enable-libdc1394 --enable-libdrm --enable-libiec61883 --enable-chromaprint --enable-frei0r --enable-libx264 --enable-shared\n  libavutil      56. 70.100 / 56. 70.100\n  libavcodec     58.134.100 / 58.134.100\n  libavformat    58. 76.100 / 58. 76.100\n  libavdevice    58. 13.100 / 58. 13.100\n  libavfilter     7.110.100 /  7.110.100\n  libswscale      5.  9.100 /  5.  9.100\n  libswresample   3.  9.100 /  3.  9.100\n  libpostproc    55.  9.100 / 55.  9.100\nInput #0, image2, from '/kaggle/working/Arrest002_x264_result/%05d.jpg':\n  Duration: 00:00:59.72, start: 0.000000, bitrate: N/A\n  Stream #0:0: Video: mjpeg (Baseline), yuvj420p(pc, bt470bg/unknown/unknown), 320x240 [SAR 1:1 DAR 4:3], 25 fps, 25 tbr, 25 tbn, 25 tbc\nStream mapping:\n  Stream #0:0 -> #0:0 (mjpeg (native) -> h264 (libx264))\nPress [q] to stop, [?] for help\n\u001b[1;36m[libx264 @ 0x58e74d04d300] \u001b[0musing SAR=1/1\n\u001b[1;36m[libx264 @ 0x58e74d04d300] \u001b[0musing cpu capabilities: MMX2 SSE2Fast SSSE3 SSE4.2 AVX FMA3 BMI2 AVX2 AVX512\n\u001b[1;36m[libx264 @ 0x58e74d04d300] \u001b[0mprofile High, level 1.3, 4:2:0, 8-bit\n\u001b[1;36m[libx264 @ 0x58e74d04d300] \u001b[0m264 - core 163 r3060 5db6aa6 - H.264/MPEG-4 AVC codec - Copyleft 2003-2021 - http://www.videolan.org/x264.html - options: cabac=1 ref=3 deblock=1:0:0 analyse=0x3:0x113 me=hex subme=7 psy=1 psy_rd=1.00:0.00 mixed_ref=1 me_range=16 chroma_me=1 trellis=1 8x8dct=1 cqm=0 deadzone=21,11 fast_pskip=1 chroma_qp_offset=-2 threads=6 lookahead_threads=1 sliced_threads=0 nr=0 decimate=1 interlaced=0 bluray_compat=0 constrained_intra=0 bframes=3 b_pyramid=2 b_adapt=1 b_bias=0 direct=1 weightb=1 open_gop=0 weightp=2 keyint=250 keyint_min=25 scenecut=40 intra_refresh=0 rc_lookahead=40 rc=crf mbtree=1 crf=23.0 qcomp=0.60 qpmin=0 qpmax=69 qpstep=4 ip_ratio=1.40 aq=1:1.00\nOutput #0, mp4, to '/kaggle/working/Arrest002_x264_result.mp4':\n  Metadata:\n    encoder         : Lavf58.76.100\n  Stream #0:0: Video: h264 (avc1 / 0x31637661), yuvj420p(pc, bt470bg/unknown/unknown, progressive), 320x240 [SAR 1:1 DAR 4:3], q=2-31, 25 fps, 12800 tbn\n    Metadata:\n      encoder         : Lavc58.134.100 libx264\n    Side data:\n      cpb: bitrate max/min/avg: 0/0/0 buffer size: 0 vbv_delay: N/A\nframe= 1493 fps=476 q=-1.0 Lsize=     929kB time=00:00:59.60 bitrate= 127.6kbits/s speed=  19x    \nvideo:911kB audio:0kB subtitle:0kB other streams:0kB global headers:0kB muxing overhead: 1.949978%\n\u001b[1;36m[libx264 @ 0x58e74d04d300] \u001b[0mframe I:7     Avg QP:19.20  size:  5412\n\u001b[1;36m[libx264 @ 0x58e74d04d300] \u001b[0mframe P:462   Avg QP:22.64  size:  1275\n\u001b[1;36m[libx264 @ 0x58e74d04d300] \u001b[0mframe B:1024  Avg QP:27.16  size:   298\n\u001b[1;36m[libx264 @ 0x58e74d04d300] \u001b[0mconsecutive B-frames:  4.3%  8.4% 13.1% 74.2%\n\u001b[1;36m[libx264 @ 0x58e74d04d300] \u001b[0mmb I  I16..4: 24.0% 60.8% 15.2%\n\u001b[1;36m[libx264 @ 0x58e74d04d300] \u001b[0mmb P  I16..4:  4.0% 10.9%  1.0%  P16..4: 23.0% 10.1%  7.7%  0.0%  0.0%    skip:43.3%\n\u001b[1;36m[libx264 @ 0x58e74d04d300] \u001b[0mmb B  I16..4:  0.4%  0.5%  0.1%  B16..8: 22.6%  1.6%  0.5%  direct: 0.7%  skip:73.5%  L0:46.6% L1:51.4% BI: 2.0%\n\u001b[1;36m[libx264 @ 0x58e74d04d300] \u001b[0m8x8 transform intra:65.5% inter:65.8%\n\u001b[1;36m[libx264 @ 0x58e74d04d300] \u001b[0mcoded y,uvDC,uvAC intra: 48.0% 62.9% 15.1% inter: 5.3% 8.9% 0.6%\n\u001b[1;36m[libx264 @ 0x58e74d04d300] \u001b[0mi16 v,h,dc,p: 26% 44%  6% 24%\n\u001b[1;36m[libx264 @ 0x58e74d04d300] \u001b[0mi8 v,h,dc,ddl,ddr,vr,hd,vl,hu: 27% 23% 33%  3%  2%  3%  2%  4%  3%\n\u001b[1;36m[libx264 @ 0x58e74d04d300] \u001b[0mi4 v,h,dc,ddl,ddr,vr,hd,vl,hu: 27% 27% 20%  4%  4%  5%  4%  5%  4%\n\u001b[1;36m[libx264 @ 0x58e74d04d300] \u001b[0mi8c dc,h,v,p: 50% 28% 17%  5%\n\u001b[1;36m[libx264 @ 0x58e74d04d300] \u001b[0mWeighted P-Frames: Y:1.7% UV:0.9%\n\u001b[1;36m[libx264 @ 0x58e74d04d300] \u001b[0mref P L0: 68.6% 11.9% 14.2%  5.3%  0.1%\n\u001b[1;36m[libx264 @ 0x58e74d04d300] \u001b[0mref B L0: 82.8% 14.5%  2.7%\n\u001b[1;36m[libx264 @ 0x58e74d04d300] \u001b[0mref B L1: 94.7%  5.3%\n\u001b[1;36m[libx264 @ 0x58e74d04d300] \u001b[0mkb/s:124.84\n","output_type":"stream"}]},{"cell_type":"code","source":"","metadata":{},"execution_count":null,"outputs":[]}]}